<?xml version="1.0" encoding="utf-8"?>
<!-- Generator: Adobe Illustrator 14.0.0, SVG Export Plug-In . SVG Version: 6.00 Build 43363)  -->
<!DOCTYPE svg PUBLIC "-//W3C//DTD SVG 1.1//EN" "http://www.w3.org/Graphics/SVG/1.1/DTD/svg11.dtd">
<svg version="1.1" id="Layer_1" xmlns="http://www.w3.org/2000/svg" xmlns:xlink="http://www.w3.org/1999/xlink" x="0px" y="0px"
	 width="792px" height="163px" viewBox="0 0 792 163" enable-background="new 0 0 792 163" xml:space="preserve">
<g>
	<path fill="#FFFFFF" d="M43.726,20.663H31.561v12.94h-3.238v-12.94H16.158c0-1.015,0.4-1.84,1.21-2.467
		c0.655-0.52,1.346-0.771,2.036-0.771h21.085c1.039,0,1.848,0.379,2.461,1.159C43.462,19.235,43.726,19.925,43.726,20.663z"/>
	<g>
		<path fill="#FFFFFF" d="M130.637,99.686c0,4.217-1.661,7.633-4.975,10.224c-2.786,2.165-5.623,3.237-8.486,3.237h-87.55
			c-4.404,0-7.863-1.662-10.367-4.983c-2.062-2.685-3.101-5.521-3.101-8.478h101.018V86.213h-87.55
			c-4.225,0-7.632-1.654-10.24-4.966c-2.155-2.773-3.229-5.589-3.229-8.465V59.365c0-4.388,1.61-7.829,4.838-10.334
			c2.607-2.062,5.495-3.088,8.63-3.088h87.55c4.311,0,7.72,1.614,10.232,4.85c2.155,2.684,3.229,5.568,3.229,8.618H29.626v13.328
			h87.55c4.311,0,7.72,1.62,10.232,4.852c2.155,2.693,3.229,5.575,3.229,8.622V99.686L130.637,99.686z"/>
		<path fill="#FFFFFF" d="M258.601,99.711c0,4.216-1.677,7.615-4.982,10.213c-2.794,2.148-5.624,3.223-8.495,3.223h-87.541
			c-4.311,0-7.736-1.611-10.24-4.84c-2.164-2.69-3.229-5.547-3.229-8.595v-40.33c0-4.388,1.618-7.845,4.847-10.35
			c2.589-2.061,5.479-3.088,8.622-3.088h87.541c4.311,0,7.718,1.609,10.241,4.843c2.146,2.683,3.236,5.554,3.236,8.595V99.711z
			 M245.124,99.686V59.412h-87.541v40.273H245.124z"/>
		<path fill="#FFFFFF" d="M386.549,99.711c0,4.216-1.661,7.615-4.982,10.213c-2.795,2.148-5.615,3.223-8.495,3.223h-87.541
			c-4.311,0-7.718-1.611-10.24-4.84c-2.155-2.69-3.229-5.547-3.229-8.595v-40.33c0-4.388,1.618-7.845,4.855-10.35
			c2.598-2.061,5.47-3.088,8.613-3.088v53.742h87.541V45.943c4.311,0,7.727,1.609,10.242,4.843c2.146,2.683,3.236,5.554,3.236,8.595
			V99.711L386.549,99.711z"/>
		<path fill="#FFFFFF" d="M514.446,113.18l-13.429-0.033L487.55,86.213h-74.072v26.934H400.01V59.381
			c0-3.757,1.305-6.943,3.909-9.542c2.607-2.598,5.793-3.896,9.56-3.896h87.54c4.229,0,7.643,1.657,10.249,4.966
			c2.155,2.78,3.229,5.593,3.229,8.463v13.431c0,4.031-1.328,7.284-3.994,9.742c-2.667,2.462-5.827,3.696-9.523,3.696
			L514.446,113.18z M501.019,72.739V59.412h-87.54V72.74L501.019,72.739L501.019,72.739z"/>
		<path fill="#FFFFFF" d="M642.443,99.686c0,4.311-1.608,7.711-4.837,10.224c-2.702,2.165-5.572,3.237-8.632,3.237h-87.55
			c-4.218,0-7.625-1.61-10.231-4.838c-2.146-2.691-3.229-5.512-3.229-8.469V59.381c0-4.302,1.619-7.709,4.849-10.215
			c2.699-2.15,5.571-3.223,8.612-3.223h87.55c4.303,0,7.728,1.614,10.239,4.85c2.156,2.684,3.229,5.568,3.229,8.618H541.426v40.272
			h101.018V99.686z"/>
		<path fill="#FFFFFF" d="M770.4,99.686c0,4.217-1.618,7.633-4.848,10.224c-2.702,2.165-5.521,3.237-8.495,3.237H655.912V45.943
			h101.02c4.218,0,7.624,1.661,10.231,4.979c2.155,2.786,3.237,5.615,3.237,8.49H669.38V72.74H770.4v13.474H669.38v13.472H770.4
			L770.4,99.686z"/>
		<path fill="#FFFFFF" d="M74.548,30.375c0,0.923-0.332,1.695-1.005,2.304c-0.673,0.618-1.422,0.925-2.24,0.925V27.12H50.217v6.484
			c-0.903,0-1.678-0.307-2.3-0.938c-0.623-0.622-0.946-1.396-0.946-2.291v-12.95h3.246v6.445h21.085v-6.445h3.246V30.375z"/>
		<path fill="#FFFFFF" d="M105.353,30.361c0,1.02-0.375,1.832-1.159,2.462c-0.655,0.525-1.337,0.78-2.036,0.78H77.793V17.425h24.321
			c1.015,0,1.849,0.396,2.472,1.197c0.52,0.668,0.766,1.35,0.766,2.041H81.03v3.207h24.322v3.25H81.03v3.241H105.353z"/>
		<path fill="#FFFFFF" d="M401.526,138.346c0,1.038-0.4,1.856-1.178,2.469c-0.655,0.521-1.345,0.769-2.079,0.769h-21.092
			c-1.014,0-1.823-0.384-2.454-1.159c-0.52-0.648-0.784-1.328-0.784-2.045v-9.738c0-1.039,0.391-1.856,1.168-2.461
			c0.655-0.52,1.345-0.777,2.07-0.777h21.092c1.039,0,1.866,0.394,2.473,1.168c0.52,0.648,0.784,1.338,0.784,2.08h-24.349v9.695
			H401.526z"/>
		<path fill="#FFFFFF" d="M432.331,138.346c0,1.021-0.4,1.829-1.193,2.469c-0.682,0.521-1.361,0.769-2.054,0.769h-21.085
			c-1.039,0-1.856-0.384-2.47-1.159c-0.512-0.648-0.767-1.347-0.767-2.07v-12.951h3.235v12.943H432.331z"/>
		<path fill="#FFFFFF" d="M438.822,141.583h-3.254v-16.179h3.254V141.583z"/>
		<path fill="#FFFFFF" d="M469.636,138.354c0,1.03-0.399,1.849-1.168,2.461c-0.646,0.521-1.338,0.769-2.079,0.769V128.65h-8.91
			v12.933h-3.254V128.65h-8.92v12.933c-1.029,0-1.856-0.384-2.461-1.159c-0.52-0.648-0.774-1.347-0.774-2.07v-9.713
			c0-1.013,0.392-1.83,1.19-2.461c0.673-0.52,1.355-0.777,2.045-0.777h21.084c1.031,0,1.866,0.385,2.473,1.168
			c0.52,0.64,0.774,1.33,0.774,2.07V138.354L469.636,138.354z"/>
		<path fill="#FFFFFF" d="M500.389,128.641v9.713c0,1.013-0.392,1.832-1.175,2.461c-0.64,0.521-1.32,0.769-2.011,0.769h-24.322
			v-16.179h24.322c1.021,0,1.832,0.402,2.436,1.201C500.133,127.253,500.389,127.934,500.389,128.641z M497.203,131.861v-3.211
			h-21.076v3.211H497.203z M497.203,138.346v-3.238h-21.076v3.238H497.203z"/>
		<path fill="#FFFFFF" d="M506.932,141.583h-3.246v-16.179h3.246V141.583z"/>
		<path fill="#FFFFFF" d="M537.754,138.354c0,1.03-0.393,1.849-1.177,2.461c-0.638,0.521-1.328,0.769-2.069,0.769V128.65h-21.076
			v12.933c-1.039,0-1.865-0.384-2.479-1.159c-0.52-0.648-0.768-1.347-0.768-2.07v-9.713c0-1.013,0.4-1.83,1.191-2.461
			c0.674-0.52,1.364-0.777,2.054-0.777h21.076c1.03,0,1.866,0.385,2.463,1.168c0.521,0.64,0.783,1.33,0.783,2.07L537.754,138.354
			L537.754,138.354z"/>
		<path fill="#FFFFFF" d="M568.568,138.346c0,1.021-0.395,1.829-1.193,2.469c-0.673,0.521-1.364,0.769-2.045,0.769h-21.084
			c-1.023,0-1.849-0.394-2.472-1.192c-0.521-0.664-0.784-1.347-0.784-2.037v-9.703c0-1.021,0.393-1.84,1.177-2.471
			c0.64-0.52,1.328-0.777,2.036-0.777h21.127c1.006,0,1.831,0.394,2.461,1.187c0.513,0.646,0.777,1.345,0.777,2.062l-24.322,0.033
			v9.662h21.084v-3.238h-14.604l-1.626-3.248h16.229c1.006,0,1.831,0.385,2.461,1.168c0.513,0.64,0.777,1.33,0.777,2.037V138.346z"
			/>
		<path fill="#FFFFFF" d="M615.6,138.346c0,1.038-0.382,1.856-1.166,2.469c-0.654,0.521-1.346,0.769-2.078,0.769h-21.085
			c-1.015,0-1.841-0.384-2.463-1.159c-0.511-0.648-0.773-1.328-0.773-2.045v-9.738c0-1.039,0.384-1.856,1.168-2.461
			c0.646-0.52,1.337-0.777,2.068-0.777h21.085c1.049,0,1.857,0.394,2.471,1.168c0.511,0.648,0.773,1.338,0.773,2.08h-24.329v9.695
			H615.6z"/>
		<path fill="#FFFFFF" d="M646.414,138.346c0,1.021-0.393,1.829-1.159,2.469c-0.655,0.521-1.336,0.769-2.043,0.769h-24.365v-16.179
			h24.329c1.016,0,1.832,0.402,2.463,1.201c0.521,0.664,0.775,1.347,0.775,2.045h-24.33v3.211h24.33v3.246h-24.33v3.238H646.414
			L646.414,138.346z"/>
		<path fill="#FFFFFF" d="M677.236,138.354c0,1.03-0.394,1.849-1.176,2.461c-0.64,0.521-1.33,0.769-2.071,0.769V128.65h-21.084
			v12.933c-1.047,0-1.857-0.384-2.47-1.159c-0.512-0.648-0.775-1.347-0.775-2.07v-9.713c0-1.013,0.4-1.83,1.209-2.461
			c0.664-0.52,1.338-0.777,2.036-0.777h21.084c1.04,0,1.866,0.385,2.463,1.168c0.52,0.64,0.784,1.33,0.784,2.07V138.354z"/>
		<path fill="#FFFFFF" d="M708.057,128.65h-12.172v12.933h-3.246V128.65h-12.165c0-1.021,0.4-1.84,1.2-2.471
			c0.673-0.52,1.348-0.777,2.036-0.777h21.084c1.049,0,1.876,0.394,2.48,1.168C707.795,127.221,708.057,127.909,708.057,128.65z"/>
		<path fill="#FFFFFF" d="M738.863,138.346c0,1.021-0.394,1.829-1.168,2.469c-0.648,0.521-1.328,0.769-2.035,0.769h-24.365v-16.179
			h24.322c1.022,0,1.832,0.402,2.47,1.201c0.521,0.664,0.776,1.347,0.776,2.045h-24.331v3.211h24.331v3.246h-24.331v3.238H738.863
			L738.863,138.346z"/>
		<path fill="#FFFFFF" d="M769.668,141.6l-3.237-0.017l-3.247-6.476h-17.828v6.476H742.1v-12.94c0-0.912,0.324-1.68,0.946-2.301
			c0.63-0.63,1.396-0.938,2.31-0.938h21.075c1.03,0,1.839,0.402,2.471,1.201c0.52,0.664,0.774,1.347,0.774,2.037v3.229
			c0,0.972-0.313,1.755-0.963,2.352c-0.638,0.588-1.405,0.887-2.291,0.887L769.668,141.6z M766.431,131.861v-3.211h-21.075v3.211
			H766.431z"/>
	</g>
</g>
</svg>
